<svg xmlns="http://www.w3.org/2000/svg" width="372.19" height="231.54" viewBox="0 0 372.19 231.54">
  <g id="Capa_2" data-name="Capa 2">
    <g id="Capa_1-2" data-name="Capa 1">
      <g>
        <path d="M22.07,0h111.4L121.14,87.53H41.56l-3.34,23.88H6.39ZM49.44,31.83,46,55.7H93.76l3.43-23.87Z" fill="#fcfcfc"/>
        <path d="M162.44,76.79l-4.86,34.62H125.75L141.43,0h111.4L240.5,87.53H216.71l20.53,23.88h-45Zm6.36-45L165.38,55.7h47.75l3.42-23.87Z" fill="#fcfcfc"/>
        <path d="M260.79,0h111.4L356.52,111.41H245.11Zm27.37,31.83L281.4,79.57h47.75l6.76-47.74Z" fill="#fcfcfc"/>
        <g>
          <polygon points="124.44 120.13 108.76 231.54 140.59 231.54 151.81 151.96 159.76 151.96 148.54 231.54 180.38 231.54 191.6 151.96 199.55 151.96 188.33 231.54 220.16 231.54 235.84 120.13 124.44 120.13" fill="#8cda3f"/>
          <polygon points="355.2 120.13 332.68 120.13 294.8 153.31 266.32 120.13 243.8 120.13 240.61 142.65 269.1 175.83 231.3 209.02 228.12 231.54 250.64 231.54 288.52 198.35 317 231.54 339.53 231.54 342.71 209.02 314.14 175.83 352.02 142.65 355.2 120.13" fill="#8cda3f"/>
        </g>
        <g>
          <polygon points="100.78 231.53 106.09 194.4 68.96 194.4 63.64 231.53 100.78 231.53" fill="#fcfcfc"/>
          <polygon points="37.13 157.26 31.82 194.4 68.96 194.4 74.27 157.26 37.13 157.26" fill="#fcfcfc"/>
          <polygon points="116.72 120.13 79.58 120.13 74.27 157.26 111.41 157.26 116.72 120.13" fill="#fcfcfc"/>
          <polygon points="5.31 120.13 0 157.26 37.13 157.26 42.45 120.13 5.31 120.13" fill="#fcfcfc"/>
        </g>
      </g>
    </g>
  </g>
</svg>
