<svg xmlns="http://www.w3.org/2000/svg" width="712.37" height="111.41" viewBox="0 0 712.37 111.41">
  <g id="Capa_2" data-name="Capa 2">
    <g id="Capa_1-2" data-name="Capa 1">
      <g>
        <g>
          <path d="M123.74,0,108.07,111.41H139.9l3.34-23.88h79.57L235.15,0Zm71.7,55.7H147.69l3.43-23.87h47.74Z" fill="#fcfcfc"/>
          <path d="M354.51,0H243.11L227.43,111.41h31.83l4.85-34.62,29.76,34.62h45L318.38,87.53h23.8ZM314.8,55.7H267.06l3.42-23.87h47.74Z" fill="#fcfcfc"/>
          <path d="M362.47,0,346.79,111.41H458.2L473.87,0Zm68.35,79.57H383.08l6.76-47.74h47.74Z" fill="#fcfcfc"/>
        </g>
        <g>
          <polygon points="481.61 0 465.93 111.41 497.76 111.41 508.98 31.83 516.94 31.83 505.72 111.41 537.55 111.41 548.77 31.83 556.72 31.83 545.5 111.41 577.34 111.41 593.01 0 481.61 0" fill="#8cda3f"/>
          <polygon points="712.37 0 689.86 0 651.98 33.18 623.49 0 600.97 0 597.79 22.52 626.27 55.7 588.48 88.89 585.29 111.41 607.81 111.41 645.69 78.22 674.18 111.41 696.7 111.41 699.88 88.89 671.32 55.7 709.19 22.52 712.37 0" fill="#8cda3f"/>
        </g>
        <g>
          <polygon points="100.78 111.41 106.09 74.27 68.96 74.27 63.64 111.41 100.78 111.41" fill="#fcfcfc"/>
          <polygon points="37.13 37.13 31.82 74.27 68.96 74.27 74.27 37.13 37.13 37.13" fill="#fcfcfc"/>
          <polygon points="116.72 0 79.58 0 74.27 37.13 111.41 37.13 116.72 0" fill="#fcfcfc"/>
          <polygon points="5.31 0 0 37.13 37.13 37.13 42.45 0 5.31 0" fill="#fcfcfc"/>
        </g>
      </g>
    </g>
  </g>
</svg>
